<svg width="448" height="471" viewBox="0 0 448 471" fill="none" xmlns="http://www.w3.org/2000/svg">
<path d="M274.675 24.4316C290.998 18.6616 308.385 16.1854 325.821 17.2354C350.957 18.7504 375.111 27.5329 395.35 42.5156C415.589 57.4986 431.041 78.0368 439.828 101.635C444.907 115.274 447.63 129.597 447.963 144H448V341C448 358.072 444.637 374.977 438.104 390.749C431.571 406.521 421.995 420.852 409.924 432.924C397.852 444.995 383.521 454.571 367.749 461.104C351.977 467.637 335.072 471 318 471C300.928 471 284.023 467.637 268.251 461.104C252.479 454.571 238.148 444.995 226.076 432.924C214.004 420.852 204.429 406.521 197.896 390.749C191.363 374.977 188 358.072 188 341V144H188.026C187.963 138.453 186.843 132.968 184.719 127.841C182.531 122.559 179.325 117.76 175.282 113.718C171.24 109.675 166.441 106.469 161.159 104.281C155.878 102.093 150.217 100.967 144.5 100.967C138.783 100.967 133.122 102.093 127.841 104.281C122.559 106.469 117.76 109.675 113.718 113.718C109.675 117.76 106.469 122.559 104.281 127.841C102.157 132.968 101.037 138.453 100.974 144H101V364C101 376.703 90.703 387 78 387C65.297 387 55 376.703 55 364V144H55.0029C55.0676 132.417 57.3793 120.954 61.8135 110.25C66.3115 99.3911 72.9029 89.5248 81.2139 81.2139C89.5248 72.9029 99.3911 66.3115 110.25 61.8135C121.108 57.3155 132.747 55 144.5 55C156.253 55 167.892 57.3155 178.75 61.8135C189.609 66.3115 199.475 72.9029 207.786 81.2139C216.097 89.5249 222.689 99.391 227.188 110.25C231.622 120.954 233.932 132.417 233.997 144H234V341H234.047C234.047 352.025 236.218 362.942 240.438 373.128C244.657 383.313 250.84 392.568 258.636 400.364C266.432 408.16 275.687 414.344 285.872 418.563C296.058 422.782 306.975 424.953 318 424.953C329.025 424.953 339.942 422.782 350.128 418.563C360.313 414.344 369.568 408.16 377.364 400.364C385.16 392.568 391.344 383.313 395.563 373.128C399.782 362.942 401.953 352.025 401.953 341H402V144.517C401.926 143.846 401.869 143.173 401.833 142.499C401.38 134.064 399.654 125.702 396.676 117.704C391.001 102.464 381.022 89.2004 367.952 79.5254C354.882 69.8494 339.283 64.1772 323.051 63.1992C314.531 62.6853 306.029 63.4759 297.83 65.5059C285.487 68.5609 271.42 65.052 265.136 53.998C258.853 42.9431 262.687 28.6687 274.675 24.4316ZM144.5 0C163.476 0 182.266 3.73806 199.798 10.999C217.329 18.261 233.259 28.9052 246.677 42.3232C260.095 55.7412 270.739 71.6712 278.001 89.2021C285.198 106.58 288.932 125.194 288.997 144H289V341H288.865C288.865 344.826 289.619 348.615 291.083 352.15C292.547 355.684 294.694 358.896 297.398 361.602C300.104 364.306 303.316 366.453 306.85 367.917C310.385 369.381 314.174 370.135 318 370.135C321.826 370.135 325.615 369.381 329.15 367.917C332.684 366.453 335.896 364.306 338.602 361.602C341.306 358.896 343.453 355.684 344.917 352.15C346.381 348.615 347.135 344.826 347.135 341H347V145.158C346.615 143.59 346.286 142.025 346 140.5C344.838 134.309 342.337 126.789 337.696 122.531C333.054 118.272 327.157 115.633 320.889 115.009C310.593 113.983 298.589 111.888 293.237 103.034L291.065 99.4414C284.513 88.6024 288.015 74.0983 300.323 71.1133C308.484 69.1343 316.972 68.5262 325.436 69.3701C341.572 70.9771 356.752 77.7714 368.701 88.7334C380.649 99.6943 388.724 114.233 391.714 130.171C392.574 134.755 393 139.385 393 144V341C393 350.849 391.06 360.602 387.291 369.701C383.522 378.801 377.997 387.069 371.033 394.033C364.069 400.997 355.801 406.522 346.701 410.291C337.602 414.06 327.849 416 318 416C308.151 416 298.398 414.06 289.299 410.291C280.199 406.522 271.931 400.997 264.967 394.033C258.003 387.069 252.478 378.801 248.709 369.701C244.94 360.602 243 350.849 243 341V144H243.021C242.956 131.232 240.412 118.596 235.524 106.797C230.572 94.8429 223.315 83.982 214.167 74.833C205.018 65.685 194.157 58.4276 182.203 53.4756C170.25 48.5246 157.438 45.9766 144.5 45.9766C131.562 45.9766 118.75 48.5246 106.797 53.4756C94.8429 58.4276 83.982 65.685 74.833 74.833C65.685 83.982 58.4276 94.8429 53.4756 106.797C48.5884 118.596 46.0443 131.232 45.9795 144H46V364H46.0195C46.0195 368.2 46.8471 372.358 48.4541 376.238C50.0611 380.118 52.4168 383.644 55.3867 386.613C58.3556 389.583 61.8818 391.939 65.7617 393.546C69.6417 395.153 73.8 395.98 78 395.98C82.2 395.98 86.3583 395.153 90.2383 393.546C94.1182 391.939 97.6444 389.583 100.613 386.613C103.583 383.644 105.939 380.118 107.546 376.238C109.153 372.358 109.98 368.2 109.98 364H110V235C110 222.297 120.297 212 133 212C145.703 212 156 222.297 156 235V364C156 374.243 153.982 384.386 150.063 393.849C146.143 403.313 140.397 411.911 133.154 419.154C125.911 426.397 117.313 432.143 107.849 436.063C98.3858 439.982 88.2428 442 78 442C67.7572 442 57.6142 439.982 48.1514 436.063C38.6874 432.143 30.0887 426.397 22.8457 419.154C15.6027 411.911 9.85652 403.313 5.93652 393.849C2.01765 384.386 0 374.243 0 364V144H0.00292969C0.0680047 125.194 3.80184 106.58 10.999 89.2021C18.261 71.6712 28.9052 55.7412 42.3232 42.3232C55.7412 28.9052 71.6712 18.261 89.2021 10.999C106.734 3.73806 125.524 0 144.5 0Z" fill="url(#paint0_linear_3_17)"/>
<defs>
<linearGradient id="paint0_linear_3_17" x1="333" y1="97" x2="368" y2="129.5" gradientUnits="userSpaceOnUse">
<stop stop-color="#76B9CA"/>
<stop offset="1" stop-color="#A7DFC4"/>
</linearGradient>
</defs>
</svg>
