<svg width="661" height="148" viewBox="0 0 661 148" fill="none" xmlns="http://www.w3.org/2000/svg">
<path d="M409.591 147.99C400.339 147.99 392.259 146.109 385.351 142.346C378.443 138.584 373.076 133.379 369.252 126.732C365.552 119.96 363.701 111.996 363.701 102.84C363.701 93.56 365.552 85.596 369.252 78.949C373.076 72.177 378.443 66.972 385.351 63.335C392.259 59.572 400.4 57.691 409.776 57.691C419.151 57.691 427.108 59.447 433.646 62.959C440.307 66.345 445.365 71.361 448.819 78.008C452.273 84.53 454 92.431 454 101.712C454 102.84 453.938 104.032 453.815 105.286C453.815 107.027 452.352 108.296 450.611 108.296H384.919C380.763 108.296 377.394 104.927 377.394 100.771C377.394 96.615 380.763 93.246 384.919 93.246H430.937C431.873 93.246 432.587 94.083 432.44 95.007L432.142 96.875C431.952 98.062 427.199 100.044 427.539 98.89C428.033 97.51 428.28 96.382 428.28 95.504C428.28 91.24 427.478 87.603 425.874 84.593C424.394 81.583 422.235 79.2 419.398 77.444C416.56 75.688 413.23 74.81 409.406 74.81C404.718 74.81 400.771 75.876 397.563 78.008C394.479 80.015 392.074 83.088 390.347 87.226C388.743 91.24 387.88 96.256 387.756 102.276C387.756 108.045 388.558 112.936 390.162 116.95C391.889 120.963 394.418 124.036 397.748 126.168C401.079 128.3 405.088 129.366 409.776 129.366C415.08 129.366 419.583 128.362 423.283 126.356C424.907 125.45 426.409 124.364 427.788 123.097C431.202 119.961 435.843 117.933 440.264 119.325L442.038 119.884C448.043 121.775 450.884 128.791 446.632 133.434C443.481 136.873 439.893 139.718 435.866 141.97C428.588 145.983 419.829 147.99 409.591 147.99Z" fill="black"/>
<path d="M321.062 10C321.062 4.477 325.539 0 331.062 0H336.144C341.667 0 346.144 4.477 346.144 10V135.481C346.144 141.004 341.667 145.481 336.144 145.481H331.062C325.539 145.481 321.062 141.004 321.062 135.481V10Z" fill="black"/>
<path d="M274.096 10C274.096 4.477 278.574 0 284.096 0H288.488C294.011 0 298.488 4.477 298.488 10V136.116C298.488 141.639 294.011 146.116 288.488 146.116H284.096C278.574 146.116 274.096 141.639 274.096 136.116V10ZM203.173 103.031C203.173 93.414 205.112 85.297 208.989 78.678C212.867 71.934 217.996 66.814 224.375 63.317C230.754 59.82 237.509 58.072 244.639 58.072C251.894 58.072 258.273 59.883 263.777 63.504C269.406 67.126 273.784 72.309 276.911 79.053C280.163 85.672 281.789 93.664 281.789 103.031C281.789 112.272 280.163 120.265 276.911 127.009C273.784 133.752 269.406 138.935 263.777 142.557C258.273 146.179 251.894 147.989 244.639 147.989C237.509 147.989 230.754 146.241 224.375 142.744C217.996 139.247 212.867 134.127 208.989 127.383C205.112 120.639 203.173 112.522 203.173 103.031ZM228.315 103.031C228.315 108.151 229.378 112.584 231.505 116.331C233.631 120.078 236.508 122.95 240.136 124.948C243.763 126.946 247.641 127.945 251.769 127.945C255.396 127.945 258.899 127.009 262.276 125.135C265.778 123.137 268.593 120.265 270.719 116.518C272.971 112.772 274.096 108.276 274.096 103.031C274.096 97.785 272.971 93.29 270.719 89.543C268.593 85.796 265.778 82.986 262.276 81.113C258.899 79.115 255.396 78.116 251.769 78.116C247.641 78.116 243.763 79.115 240.136 81.113C236.508 83.111 233.631 85.984 231.505 89.73C229.378 93.477 228.315 97.91 228.315 103.031Z" fill="black"/>
<path d="M130.303 112.5C130.303 118.104 131.42 122.462 133.655 125.575C135.89 128.564 139.49 130.058 144.457 130.058C147.933 130.058 150.913 129.373 153.396 128.003C156.003 126.509 157.989 124.454 159.355 121.839C160.845 119.224 161.59 116.111 161.59 112.5V70.199C161.59 64.676 166.067 60.199 171.59 60.199H175.614C181.136 60.199 185.614 64.676 185.614 70.199V136.553C185.614 141.905 181.401 146.308 176.055 146.544L173.973 146.636C171.001 146.767 168.231 145.136 166.903 142.474C164.572 138.336 158.453 138.339 154.892 141.481C153.721 142.514 152.477 143.438 151.161 144.254C146.94 146.744 141.787 147.99 135.704 147.99C125.523 147.99 117.888 145.063 112.797 139.211C107.831 133.358 105.348 125.326 105.348 115.115V70.199C105.348 64.676 109.825 60.199 115.348 60.199H120.303C125.826 60.199 130.303 64.676 130.303 70.199V112.5Z" fill="black"/>
<path d="M55.311 93.181C55.311 87.453 54.193 83.094 51.958 80.106C49.724 77.117 46.123 75.623 41.157 75.623C37.805 75.623 34.825 76.37 32.218 77.864C29.611 79.234 27.624 81.226 26.259 83.841C24.893 86.457 24.21 89.57 24.21 93.181V135.482C24.21 141.004 19.733 145.482 14.21 145.482H10C4.477 145.482 0 141.004 0 135.482V69.559C0 64.036 4.477 59.559 10 59.559H12.157C16.006 59.559 19.405 62.072 20.533 65.753L20.701 66.302C20.778 66.554 20.883 66.796 21.013 67.024C22.403 69.464 25.998 69.434 27.803 67.282C29.736 64.978 31.953 63.088 34.453 61.614C38.798 58.999 44.013 57.691 50.096 57.691C60.277 57.691 67.85 60.618 72.816 66.47C77.782 72.198 80.265 80.23 80.265 90.566V135.482C80.265 141.004 75.788 145.482 70.265 145.482H65.311C59.788 145.482 55.311 141.004 55.311 135.482V93.181Z" fill="black"/>
<path d="M515.565 148C508.758 148 502.424 146.259 496.565 142.777C490.791 139.163 485.751 134.142 481.442 127.714C477.22 121.154 473.902 113.589 471.49 105.019C469.163 96.3169 468 86.8104 468 76.5C468 66.1896 469.163 56.7504 471.49 48.1812C473.902 39.4774 477.22 31.9128 481.442 25.4862C485.751 18.925 490.791 13.9045 496.565 10.4232C502.338 6.80733 508.671 5 515.565 5C522.372 5 528.663 6.80733 534.435 10.4232C540.209 13.9045 545.207 18.8578 549.429 25.2855C553.737 31.7121 557.054 39.2768 559.381 47.9805C561.794 56.6831 563 66.1896 563 76.5C563 86.8104 561.794 96.3169 559.381 105.019C557.054 113.723 553.737 121.288 549.429 127.714C545.207 134.142 540.209 139.163 534.435 142.777C528.663 146.259 522.372 148 515.565 148ZM515.565 134.744C520.993 134.744 525.991 133.338 530.558 130.526C535.211 127.581 539.218 123.498 542.578 118.275C546.025 112.919 548.697 106.761 550.592 99.7982C552.488 92.7011 553.436 84.9358 553.436 76.5C553.436 68.0642 552.488 60.365 550.592 53.4025C548.697 46.3066 546.025 40.148 542.578 34.9255C539.218 29.5696 535.211 25.4863 530.558 22.6743C525.991 19.729 520.993 18.2557 515.565 18.2557C510.136 18.2557 505.095 19.729 500.442 22.6743C495.789 25.4863 491.74 29.5696 488.293 34.9255C484.932 40.148 482.261 46.3066 480.279 53.4025C478.383 60.365 477.436 68.0642 477.436 76.5C477.436 84.8012 478.383 92.5004 480.279 99.5975C482.261 106.693 484.932 112.919 488.293 118.275C491.74 123.498 495.789 127.581 500.442 130.526C505.095 133.338 510.136 134.744 515.565 134.744Z" fill="url(#paint0_linear_2_2)"/>
<path d="M618.92 148C610.536 148 602.474 146.326 594.735 142.979C588.285 140.037 583.063 136.425 579.07 132.143C577.727 130.703 577.46 128.598 578.204 126.775C579.774 122.932 584.991 122.088 588.257 124.649C591.014 126.811 594.141 128.77 597.637 130.526C604.409 133.74 611.503 135.346 618.92 135.346C626.013 135.346 631.764 134.276 636.171 132.133C640.685 129.857 643.963 126.844 646.006 123.095C648.155 119.346 649.23 115.195 649.23 110.643C649.23 105.154 647.941 100.736 645.361 97.3876C642.889 94.0397 639.61 91.4297 635.526 89.5551C631.442 87.5459 626.927 85.8058 621.983 84.3326C617.039 82.8605 612.094 81.32 607.15 79.7133C602.205 77.9733 597.637 75.6961 593.445 72.8853C589.361 70.0734 586.029 66.3915 583.449 61.8383C580.977 57.1518 579.741 51.0605 579.741 43.562C579.741 36.5994 581.192 30.2389 584.095 24.4816C587.103 18.5898 591.671 13.9045 597.798 10.4232C603.926 6.80733 611.772 5 621.338 5C627.68 5 633.967 6.138 640.202 8.41398C645.055 10.0821 649.388 12.2776 653.199 15.0004C655.152 16.396 655.818 18.9409 655.045 21.2138C653.717 25.1159 648.873 26.4709 645.319 24.3829C642.577 22.7715 639.742 21.4652 636.816 20.4645C631.442 18.5898 626.229 17.6525 621.177 17.6525C614.405 17.6525 608.815 18.7917 604.409 21.0676C600.002 23.3436 596.724 26.4236 594.574 30.3062C592.532 34.0555 591.511 38.3394 591.511 43.1605C591.511 48.6498 592.746 53.0684 595.219 56.4163C597.798 59.763 601.13 62.3742 605.215 64.2489C609.407 66.1235 613.975 67.7962 618.92 69.2695C623.864 70.7427 628.755 72.3494 633.591 74.0894C638.535 75.8307 643.05 78.1066 647.135 80.9186C651.327 83.5959 654.658 87.2118 657.131 91.7638C659.711 96.3169 661 102.275 661 109.639C661 116.468 659.495 122.827 656.485 128.719C653.476 134.476 648.854 139.163 642.62 142.777C636.493 146.259 628.593 148 618.92 148Z" fill="url(#paint1_linear_2_2)"/>
<defs>
<linearGradient id="paint0_linear_2_2" x1="555.56" y1="5" x2="555.56" y2="148" gradientUnits="userSpaceOnUse">
<stop stop-color="#B6E9D0"/>
<stop offset="1" stop-color="#738EC4"/>
</linearGradient>
<linearGradient id="paint1_linear_2_2" x1="551.779" y1="5" x2="551.779" y2="148" gradientUnits="userSpaceOnUse">
<stop stop-color="#B6E9D0"/>
<stop offset="1" stop-color="#738EC4"/>
</linearGradient>
</defs>
</svg>
