<svg width="18584" height="4161" viewBox="0 0 18584 4161" fill="none" xmlns="http://www.w3.org/2000/svg">
<path d="M11515.6 4160.72C11255.5 4160.72 11028.3 4107.83 10834.1 4002.04C10639.9 3896.27 10489 3749.93 10381.5 3563.05C10277.4 3372.66 10225.4 3148.75 10225.4 2891.33C10225.4 2630.43 10277.4 2406.52 10381.5 2219.64C10489 2029.24 10639.9 1882.91 10834.1 1780.65C11028.3 1674.86 11257.2 1621.97 11520.8 1621.97C11784.4 1621.97 12008.1 1671.34 12191.9 1770.08C12379.2 1865.28 12521.4 2006.3 12618.5 2193.18C12715.6 2376.55 12764.1 2598.68 12764.1 2859.62C12764.1 2891.33 12762.4 2924.84 12758.9 2960.1C12758.9 3009.05 12717.8 3044.73 12668.9 3044.73H10821.9C10705.1 3044.73 10610.4 2950.01 10610.4 2833.16C10610.4 2716.32 10705.1 2621.6 10821.9 2621.6H12115.7C12142.1 2621.6 12162.1 2645.13 12158 2671.11L12149.6 2723.63C12144.3 2757 12010.6 2812.72 12020.2 2780.28C12034.1 2741.48 12041 2709.77 12041 2685.08C12041 2565.2 12018.5 2462.95 11973.4 2378.32C11931.8 2293.69 11871.1 2226.69 11791.3 2177.32C11711.5 2127.96 11617.9 2103.27 11510.4 2103.27C11378.6 2103.27 11267.6 2133.24 11177.4 2193.18C11090.7 2249.61 11023.1 2336.01 10974.6 2452.35C10929.5 2565.2 10905.2 2706.22 10901.7 2875.47C10901.7 3037.67 10924.3 3175.18 10969.4 3288.03C11017.9 3400.86 11089 3487.25 11182.6 3547.2C11276.3 3607.14 11389 3637.11 11520.8 3637.11C11669.9 3637.11 11796.5 3608.88 11900.5 3552.48C11946.2 3527.01 11988.4 3496.47 12027.2 3460.85C12123.2 3372.68 12253.7 3315.67 12378 3354.8L12427.8 3370.52C12596.7 3423.68 12676.5 3620.94 12557 3751.48C12468.4 3848.16 12367.5 3928.15 12254.3 3991.46C12049.7 4104.29 11803.4 4160.72 11515.6 4160.72Z" fill="white"/>
<path d="M9026.62 281.149C9026.62 125.87 9152.49 0 9307.76 0H9450.64C9605.92 0 9731.79 125.87 9731.79 281.149V3809.03C9731.79 3964.31 9605.92 4090.18 9450.64 4090.18H9307.76C9152.49 4090.18 9026.62 3964.31 9026.62 3809.03V281.149Z" fill="white"/>
<path d="M7706.17 281.149C7706.17 125.87 7832.07 0 7987.32 0H8110.8C8266.08 0 8391.95 125.87 8391.95 281.149V3826.88C8391.95 3982.16 8266.08 4108.03 8110.8 4108.03H7987.32C7832.07 4108.03 7706.17 3982.16 7706.17 3826.88V281.149ZM5712.18 2896.7C5712.18 2626.32 5766.7 2398.11 5875.7 2212.02C5984.73 2022.41 6128.93 1878.47 6308.27 1780.15C6487.62 1681.83 6677.53 1632.69 6877.99 1632.69C7081.97 1632.69 7261.31 1683.6 7416.05 1785.41C7574.31 1887.24 7697.4 2032.96 7785.31 2222.56C7876.74 2408.66 7922.46 2633.35 7922.46 2896.7C7922.46 3156.51 7876.74 3381.23 7785.31 3570.84C7697.4 3760.42 7574.31 3906.14 7416.05 4007.97C7261.31 4109.8 7081.97 4160.69 6877.99 4160.69C6677.53 4160.69 6487.62 4111.55 6308.27 4013.23C6128.93 3914.91 5984.73 3770.96 5875.7 3581.36C5766.7 3391.75 5712.18 3163.54 5712.18 2896.7ZM6419.04 2896.7C6419.04 3040.65 6448.93 3165.28 6508.73 3270.63C6568.5 3375.98 6649.39 3456.72 6751.39 3512.9C6853.36 3569.07 6962.39 3597.16 7078.45 3597.16C7180.42 3597.16 7278.91 3570.84 7373.85 3518.15C7472.31 3461.98 7551.45 3381.23 7611.23 3275.89C7674.54 3170.57 7706.17 3044.17 7706.17 2896.7C7706.17 2749.21 7674.54 2622.84 7611.23 2517.49C7551.45 2412.14 7472.31 2333.14 7373.85 2280.48C7278.91 2224.31 7180.42 2196.22 7078.45 2196.22C6962.39 2196.22 6853.36 2224.31 6751.39 2280.48C6649.39 2336.65 6568.5 2417.43 6508.73 2522.75C6448.93 2628.09 6419.04 2752.73 6419.04 2896.7Z" fill="white"/>
<path d="M3663.45 3162.92C3663.45 3320.48 3694.86 3443 3757.69 3530.52C3820.53 3614.56 3921.74 3656.56 4061.39 3656.56C4159.12 3656.56 4242.9 3637.3 4312.71 3598.79C4386 3556.78 4441.84 3499.01 4480.25 3425.49C4522.14 3351.97 4543.08 3264.45 4543.08 3162.92V1973.63C4543.08 1818.36 4668.95 1692.49 4824.23 1692.49H4937.37C5092.62 1692.49 5218.51 1818.36 5218.51 1973.63V3839.17C5218.51 3989.64 5100.07 4113.43 4949.76 4120.07L4891.23 4122.65C4807.67 4126.33 4729.79 4080.48 4692.46 4005.64C4626.92 3889.3 4454.89 3889.38 4354.77 3977.72C4321.85 4006.76 4286.87 4032.74 4249.87 4055.68C4131.2 4125.69 3986.32 4160.72 3815.3 4160.72C3529.06 4160.72 3314.41 4078.43 3171.27 3913.9C3031.65 3749.34 2961.85 3523.52 2961.85 3236.44V1973.63C2961.85 1818.36 3087.72 1692.49 3242.99 1692.49H3382.3C3537.58 1692.49 3663.45 1818.36 3663.45 1973.63V3162.92Z" fill="white"/>
<path d="M1555.06 2619.77C1555.06 2458.73 1523.63 2336.18 1460.79 2252.17C1397.98 2168.13 1296.74 2126.13 1157.12 2126.13C1062.88 2126.13 979.1 2147.13 905.805 2189.13C832.509 2227.65 776.645 2283.66 738.268 2357.18C699.863 2430.73 680.661 2518.25 680.661 2619.77V3809.06C680.661 3964.31 554.791 4090.2 399.512 4090.2H281.149C125.87 4090.2 0 3964.31 0 3809.06V1955.64C0 1800.36 125.87 1674.49 281.149 1674.49H341.792C450.006 1674.49 545.569 1745.14 577.283 1848.63L582.006 1864.07C584.171 1871.15 587.123 1877.96 590.778 1884.37C629.857 1952.97 730.93 1952.13 781.677 1891.62C836.023 1826.85 898.354 1773.71 968.642 1732.27C1090.8 1658.75 1237.42 1621.97 1408.44 1621.97C1694.68 1621.97 1907.59 1704.26 2047.21 1868.79C2186.83 2029.83 2256.64 2255.65 2256.64 2546.25V3809.06C2256.64 3964.31 2130.77 4090.2 1975.49 4090.2H1836.21C1680.93 4090.2 1555.06 3964.31 1555.06 3809.06V2619.77Z" fill="white"/>
<path d="M14495 4161C14303.7 4161 14125.6 4112.04 13960.8 4014.17C13798.5 3912.54 13656.8 3771.39 13535.7 3590.67C13417 3406.24 13323.7 3193.53 13255.9 2952.61C13190.5 2707.94 13157.8 2440.66 13157.8 2150.79C13157.8 1860.91 13190.5 1595.53 13255.9 1354.61C13323.7 1109.9 13417 897.224 13535.7 716.542C13656.8 532.075 13798.5 390.922 13960.8 293.046C14123.2 191.387 14301.2 140.574 14495 140.574C14686.4 140.574 14863.3 191.387 15025.6 293.046C15187.9 390.922 15328.4 530.183 15447.1 710.9C15568.2 891.582 15661.5 1104.26 15726.9 1348.97C15794.8 1593.64 15828.7 1860.91 15828.7 2150.79C15828.7 2440.66 15794.8 2707.94 15726.9 2952.61C15661.5 3197.31 15568.2 3409.99 15447.1 3590.67C15328.4 3771.39 15187.9 3912.54 15025.6 4014.17C14863.3 4112.04 14686.4 4161 14495 4161ZM14495 3788.32C14647.6 3788.32 14788.2 3748.79 14916.6 3669.73C15047.4 3586.92 15160 3472.12 15254.5 3325.29C15351.4 3174.71 15426.5 3001.56 15479.8 2805.81C15533.1 2606.28 15559.8 2387.96 15559.8 2150.79C15559.8 1913.62 15533.1 1697.15 15479.8 1501.4C15426.5 1301.9 15351.4 1128.75 15254.5 981.925C15160 831.345 15047.4 716.543 14916.6 637.486C14788.2 554.678 14647.6 513.258 14495 513.258C14342.4 513.258 14200.7 554.678 14069.9 637.486C13939 716.543 13825.2 831.345 13728.3 981.925C13633.8 1128.75 13558.7 1301.9 13503 1501.4C13449.7 1697.15 13423 1913.62 13423 2150.79C13423 2384.17 13449.7 2600.64 13503 2800.17C13558.7 2999.67 13633.8 3174.71 13728.3 3325.29C13825.2 3472.12 13939 3586.92 14069.9 3669.73C14200.7 3748.79 14342.4 3788.32 14495 3788.32Z" fill="url(#paint0_linear_2_3)"/>
<path d="M17400.8 4161C17165.1 4161 16938.5 4113.94 16720.9 4019.85C16539.5 3937.12 16392.7 3835.57 16280.5 3715.2C16242.7 3674.69 16235.2 3615.52 16256.1 3564.25C16300.3 3456.2 16446.9 3432.49 16538.8 3504.5C16616.3 3565.28 16704.2 3620.36 16802.5 3669.73C16992.9 3760.07 17192.3 3805.24 17400.8 3805.24C17600.3 3805.24 17762 3775.14 17885.9 3714.9C18012.8 3650.91 18104.9 3566.21 18162.4 3460.8C18222.8 3355.4 18253 3238.7 18253 3110.72C18253 2956.39 18216.8 2832.17 18144.2 2738.04C18074.7 2643.91 17982.5 2570.53 17867.7 2517.83C17752.9 2461.34 17626 2412.42 17487 2371C17348 2329.61 17208.9 2286.3 17069.9 2241.13C16930.9 2192.21 16802.5 2128.18 16684.6 2049.16C16569.8 1970.1 16476.1 1866.59 16403.6 1738.58C16334.1 1606.81 16299.3 1435.56 16299.3 1224.74C16299.3 1028.99 16340.1 850.162 16421.7 688.297C16506.3 522.649 16634.8 390.922 16807 293.046C16979.3 191.387 17199.9 140.574 17468.8 140.574C17647.1 140.574 17823.9 172.569 17999.2 236.558C18135.6 283.457 18257.4 345.182 18364.6 421.734C18419.5 460.972 18438.2 532.522 18416.5 596.424C18379.2 706.129 18243 744.227 18143.1 685.523C18066 640.218 17986.3 603.492 17904 575.355C17752.9 522.65 17606.3 496.297 17464.3 496.297C17273.9 496.297 17116.8 528.325 16992.9 592.314C16869 656.303 16776.8 742.896 16716.4 852.055C16658.9 957.465 16630.3 1077.91 16630.3 1213.45C16630.3 1367.78 16665 1492.01 16734.5 1586.14C16807 1680.23 16900.7 1753.64 17015.5 1806.35C17133.4 1859.05 17261.8 1906.08 17400.8 1947.5C17539.8 1988.92 17677.3 2034.09 17813.3 2083.01C17952.3 2131.97 18079.3 2195.96 18194.1 2275.01C18312 2350.29 18405.6 2451.95 18475.1 2579.93C18547.7 2707.94 18583.9 2875.44 18583.9 3082.48C18583.9 3274.48 18541.6 3453.27 18457 3618.92C18372.4 3780.78 18242.4 3912.54 18067.2 4014.17C17894.9 4112.04 17672.8 4161 17400.8 4161Z" fill="url(#paint1_linear_2_3)"/>
<defs>
<linearGradient id="paint0_linear_2_3" x1="15619.5" y1="140.574" x2="15619.5" y2="4161" gradientUnits="userSpaceOnUse">
<stop stop-color="#B6E9D0"/>
<stop offset="1" stop-color="#738EC4"/>
</linearGradient>
<linearGradient id="paint1_linear_2_3" x1="15513.2" y1="140.574" x2="15513.2" y2="4161" gradientUnits="userSpaceOnUse">
<stop stop-color="#B6E9D0"/>
<stop offset="1" stop-color="#738EC4"/>
</linearGradient>
</defs>
</svg>
